<svg xmlns="http://www.w3.org/2000/svg" width="1080" height="1350" viewBox="0 0 1080 1350"><rect width="1080" height="1350" fill="#F1EDE4"/>
    <text x="72" y="96" text-anchor="start" fill="#0B6E52" font-family="'Cascadia Mono', 'SFMono-Regular', monospace" font-size="20" font-weight="800" letter-spacing="2.2">HAFTALIK GÖZLEM · 01</text>
    <svg x="858" y="70" width="150" height="82.5" viewBox="0 40 574 280"><path transform="matrix(1,0,0,-1,209.5484,319.1825)" d="M0 0C-47.329 0-94.659 .079-141.987-.109-147.361-.13-149.127 .765-148.932 6.685-145.396 113.504-67.17 202.038 39.933 220.075 163.383 240.865 281.376 157.595 301.093 35.814 302.718 25.78 303.618 15.721 303.844 5.561 303.937 1.357 302.908-.302 298.314-.099 290.255 .256 282.15 .32 274.1-.118 269.081-.391 267.717 1.42 267.155 6.075 264.596 27.269 258.701 47.466 247.117 65.766 244.03 70.642 240.486 75.17 236.316 79.23 217.989 97.077 195.294 96.394 178.151 77.297 162.984 60.401 155.981 39.881 151.496 18.292 151.093 16.351 150.7 14.406 150.384 12.45 148.373 .001 148.381 0 135.931 0 90.62 0 45.31 0 0 0" fill="#0B6E52"/><path transform="matrix(1,0,0,-1,377.4265,177.51068)" d="M0 0C0-8.048-6.524-14.573-14.573-14.573-22.621-14.573-29.145-8.048-29.145 0-29.145 8.048-22.621 14.573-14.573 14.573-6.524 14.573 0 8.048 0 0" fill="#F1EDE4"/></svg>
    <text x="72" y="315" fill="#141816" font-family="'Segoe UI', Arial, sans-serif" font-size="93" font-weight="820" letter-spacing="-3.8"><tspan x="72" dy="0">HAFTANIN</tspan><tspan x="72" dy="96">AKADEMİK</tspan><tspan x="72" dy="96">BURÇLARI</tspan></text>
    <text x="76" y="684" fill="#0B6E52" font-family="'Segoe UI', Arial, sans-serif" font-size="43" font-weight="720">Merkür notlarda.</text>
    <text x="76" y="743" fill="#68706C" font-family="'Segoe UI', Arial, sans-serif" font-size="43" font-weight="620">Mola yükselende.</text>
    <g transform="translate(764 830)">
      <circle cx="102" cy="102" r="92" fill="none" stroke="#D9D3C7" stroke-width="3" stroke-dasharray="7 12"/><circle cx="188.4" cy="70.5" r="10" fill="#0B6E52"/>
      <circle cx="102" cy="102" r="53" fill="none" stroke="#D9D3C7" stroke-width="3" stroke-dasharray="7 12"/><circle cx="64.8" cy="139.7" r="10" fill="#141816"/>
      <circle cx="102" cy="102" r="18" fill="#0B6E52"/>
    </g>
    <text x="72" y="1080" text-anchor="start" fill="#68706C" font-family="'Cascadia Mono', 'SFMono-Regular', monospace" font-size="19" font-weight="800" letter-spacing="2.2">KAYDIR · BURCUNU BUL</text>
    <path d="M72 1116H398" stroke="#0B6E52" stroke-width="5" stroke-linecap="round"/>
    <path d="M374 1094l24 22-24 22" fill="none" stroke="#0B6E52" stroke-width="5" stroke-linecap="round" stroke-linejoin="round"/>
    <path d="M72 1234H1008" stroke="#D9D3C7" stroke-width="2"/><text x="72" y="1286" fill="#68706C" font-family="'Cascadia Mono', 'SFMono-Regular', monospace" font-size="18" font-weight="750" letter-spacing="1.4">AKADEMİK GÖKYÜZÜ · 7—13 EYLÜL</text><text x="1008" y="1286" text-anchor="end" fill="#68706C" font-family="'Cascadia Mono', 'SFMono-Regular', monospace" font-size="18" font-weight="750">01 / 08</text>
  </svg>