<svg xmlns="http://www.w3.org/2000/svg" width="1080" height="1920" viewBox="0 0 1080 1920">
  <rect width="1080" height="1920" fill="#0A0C0B"/>
  <svg x="868" y="228" width="140" height="77" viewBox="0 40 574 280"><path transform="matrix(1,0,0,-1,209.5484,319.1825)" d="M0 0C-47.329 0-94.659 .079-141.987-.109-147.361-.13-149.127 .765-148.932 6.685-145.396 113.504-67.17 202.038 39.933 220.075 163.383 240.865 281.376 157.595 301.093 35.814 302.718 25.78 303.618 15.721 303.844 5.561 303.937 1.357 302.908-.302 298.314-.099 290.255 .256 282.15 .32 274.1-.118 269.081-.391 267.717 1.42 267.155 6.075 264.596 27.269 258.701 47.466 247.117 65.766 244.03 70.642 240.486 75.17 236.316 79.23 217.989 97.077 195.294 96.394 178.151 77.297 162.984 60.401 155.981 39.881 151.496 18.292 151.093 16.351 150.7 14.406 150.384 12.45 148.373 .001 148.381 0 135.931 0 90.62 0 45.31 0 0 0" fill="#1DBA8B"/><path transform="matrix(1,0,0,-1,377.4265,177.51068)" d="M0 0C0-8.048-6.524-14.573-14.573-14.573-22.621-14.573-29.145-8.048-29.145 0-29.145 8.048-22.621 14.573-14.573 14.573-6.524 14.573 0 8.048 0 0" fill="#0A0C0B"/></svg>
  <text x="76" y="280" fill="#1DBA8B" font-family="Segoe UI, Arial, sans-serif" font-size="23" font-weight="650" letter-spacing="2.8"><tspan x="76" dy="0">BUGÜN · 6 EYLÜL 2026</tspan></text>
  <text x="70" y="585" fill="#F1EDE4" font-family="Segoe UI, Arial, sans-serif" font-size="104" font-weight="720" letter-spacing="-3.6"><tspan x="70" dy="0">KPSS’ye giren</tspan><tspan x="70" dy="118">herkese</tspan></text>
  <text x="70" y="855" fill="#1DBA8B" font-family="Segoe UI, Arial, sans-serif" font-size="126" font-weight="720" letter-spacing="-4.2"><tspan x="70" dy="0">başarılar.</tspan></text>
  <text x="76" y="1125" fill="#F1EDE4" font-family="Segoe UI, Arial, sans-serif" font-size="49" font-weight="500" letter-spacing="-1"><tspan x="76" dy="0">Kimlik.</tspan><tspan x="76" dy="69">Sınav giriş belgesi.</tspan><tspan x="76" dy="69">Bir de sakinlik.</tspan></text>
  <rect x="76" y="1390" width="928" height="144" rx="30" fill="none" stroke="#31453B" stroke-width="3"/>
  <text x="112" y="1450" fill="#1DBA8B" font-family="Segoe UI, Arial, sans-serif" font-size="55" font-weight="720" letter-spacing="-1.6"><tspan x="112" dy="0">10.00</tspan></text>
  <text x="318" y="1441" fill="#F1EDE4" font-family="Segoe UI, Arial, sans-serif" font-size="31" font-weight="450" letter-spacing="-0.4"><tspan x="318" dy="0">Bu saatten sonra sınav</tspan><tspan x="318" dy="44">binalarına giriş yok.</tspan></text>
  <path d="M76 1634H1004" stroke="#31453B" stroke-width="2"/><text x="76" y="1686" fill="#98A39D" font-family="Segoe UI, Arial, sans-serif" font-size="20" font-weight="650" letter-spacing="2"><tspan x="76" dy="0">GENEL YETENEK · GENEL KÜLTÜR</tspan></text>
</svg>